<svg width="49" height="50" viewBox="0 0 49 50" fill="none" xmlns="http://www.w3.org/2000/svg">
<path d="M10.0142 24.4444C10.0142 22.8567 10.2779 21.3344 10.7486 19.9067L2.51023 13.6155C0.904617 16.8755 0 20.5489 0 24.4444C0 28.3366 0.903504 32.0078 2.50689 35.2655L10.7408 28.9622C10.2746 27.5411 10.0142 26.0244 10.0142 24.4444Z" fill="#FBBC05"/>
<path d="M24.4792 10C27.9285 10 31.0441 11.2222 33.492 13.2222L40.6132 6.11111C36.2737 2.33333 30.7103 0 24.4792 0C14.8055 0 6.49146 5.53222 2.51025 13.6156L10.7486 19.9067C12.6469 14.1444 18.0579 10 24.4792 10Z" fill="#EA4335"/>
<path d="M24.4792 38.8889C18.0579 38.8889 12.6469 34.7445 10.7486 28.9822L2.51025 35.2722C6.49146 43.3567 14.8055 48.8889 24.4792 48.8889C30.4499 48.8889 36.1502 46.7689 40.4285 42.7967L32.6085 36.7511C30.402 38.1411 27.6237 38.8889 24.4792 38.8889Z" fill="#34A853"/>
<path d="M47.8457 24.4444C47.8457 23 47.6231 21.4444 47.2893 20H24.4792V29.4444H37.6089C36.9524 32.6644 35.1655 35.14 32.6085 36.7511L40.4285 42.7967C44.9226 38.6256 47.8457 32.4122 47.8457 24.4444Z" fill="#4285F4"/>
</svg>
