<svg width="50" height="50" viewBox="0 0 50 50" fill="none" xmlns="http://www.w3.org/2000/svg">
<rect width="50" height="50" rx="3.125" fill="#00ABF1"/>
<path d="M44.5312 12.8849C43.0941 13.5227 41.5501 13.9531 39.9289 14.147C41.5828 13.1552 42.8537 11.5842 43.4524 9.71371C41.904 10.6321 40.1884 11.2983 38.3625 11.6579C36.9015 10.1001 34.818 9.1272 32.5136 9.1272C28.0874 9.1272 24.4988 12.7158 24.4988 17.1415C24.4988 17.7694 24.5698 18.3807 24.7067 18.9681C18.0458 18.633 12.1412 15.4432 8.18839 10.5938C7.4984 11.7774 7.10333 13.1537 7.10333 14.6233C7.10333 17.4037 8.51766 19.8563 10.6682 21.2935C9.35518 21.2516 8.11968 20.8915 7.03836 20.2914C7.03795 20.3244 7.03795 20.3582 7.03795 20.392C7.03795 24.2746 9.80067 27.5135 13.4664 28.251C12.7939 28.4331 12.0856 28.5318 11.3556 28.5318C10.8385 28.5318 10.3369 28.4801 9.84805 28.3876C10.8676 31.5708 13.8276 33.8882 17.3337 33.9529C14.5917 36.1028 11.1359 37.3841 7.38024 37.3841C6.73403 37.3841 6.09612 37.346 5.46875 37.2711C9.01621 39.5459 13.2286 40.8729 17.7542 40.8729C32.4948 40.8729 40.556 28.6611 40.556 18.071C40.556 17.7227 40.548 17.3774 40.5332 17.0334C42.0978 15.9032 43.4574 14.4924 44.5312 12.8849Z" fill="white"/>
</svg>
